<?xml version="1.0" encoding="UTF-8"?>
<svg width="130px" height="130px" viewBox="0 0 130 130" version="1.1" xmlns="http://www.w3.org/2000/svg" xmlns:xlink="http://www.w3.org/1999/xlink">
    <!-- Generator: Sketch 51.2 (57519) - http://www.bohemiancoding.com/sketch -->
    <title>Fill 1</title>
    <desc>Created with Sketch.</desc>
    <defs></defs>
    <g id="Page-1" stroke="none" stroke-width="1" fill="none" fill-rule="evenodd">
        <g id="Hero-Screen-1440-VF" transform="translate(-120.000000, -1560.000000)" fill="#FFDC00">
            <g id="Infographic" transform="translate(0.000000, 1365.000000)">
                <path d="M185,195 C149.101719,195 120,224.101719 120,260 C120,295.898281 149.101719,325 185,325 C220.898281,325 250,295.898281 250,260 C250,224.101719 220.898281,195 185,195 M198.490566,291.477987 C195.780152,291.477987 193.584906,289.281109 193.584906,286.573378 C193.584906,283.863545 195.780152,281.666667 198.490566,281.666667 C201.198877,281.666667 203.396226,283.863545 203.396226,286.573378 C203.396226,289.281109 201.198877,291.477987 198.490566,291.477987 M177.232704,291.477987 C174.52229,291.477987 172.327044,289.281109 172.327044,286.573378 C172.327044,283.863545 174.52229,281.666667 177.232704,281.666667 C179.943119,281.666667 182.138365,283.863545 182.138365,286.573378 C182.138365,289.281109 179.943119,291.477987 177.232704,291.477987 M213.969337,244.387736 L208.356123,267.278774 C208.148758,268.129088 207.403477,268.719811 206.545276,268.719811 L172.338336,268.719811 L173.986987,275.397642 L204.592764,275.397642 C205.629587,275.397642 206.479576,276.256132 206.479576,277.304717 C206.479576,277.830031 206.270158,278.308333 205.921129,278.65173 C205.582365,279.003302 205.110149,279.213836 204.592764,279.213836 L172.516957,279.213836 C171.648489,279.213836 170.894996,278.621069 170.685579,277.772799 L160.668433,237.241824 L154.593268,237.241824 C153.554392,237.241824 152.704403,236.383333 152.704403,235.334748 C152.704403,234.809434 152.91382,234.333176 153.26285,233.98978 C153.601614,233.636164 154.07383,233.427673 154.593268,233.427673 L162.138463,233.427673 C163.006931,233.427673 163.762477,234.018396 163.967788,234.868711 L165.733467,242.012579 L212.158491,242.012579 C213.373934,242.012579 214.26088,243.175629 213.969337,244.387736" id="Fill-1"></path>
            </g>
        </g>
    </g>
</svg>